<svg width="100" height="64" viewBox="0 0 100 64" fill="none" xmlns="http://www.w3.org/2000/svg">
<path d="M15.9117 28.1017L17.5532 16.5945H17.7404L22.3912 26.0437L26.9989 16.5945H27.186L28.8275 28.1017H27.7044L26.5813 19.8698L22.5352 28.1017H22.2472L18.158 19.8119L17.0349 28.1017H15.9117Z" fill="#662483"/>
<path d="M29.5756 19.5938H30.7275L33.636 26.1445L36.4582 19.5938H37.6101L32.5705 31.2169H31.4186L33.0457 27.4633L29.5756 19.5938Z" fill="#662483"/>
<path d="M38.7041 16.5945H41.0079C42.2606 16.5945 43.1533 16.7104 43.7149 16.9423C44.2621 17.1742 44.7084 17.551 45.0252 18.0727C45.342 18.5945 45.5004 19.2177 45.5004 19.9423C45.5004 20.7394 45.2988 21.4206 44.8812 21.9423C44.4636 22.4785 43.9021 22.8409 43.1821 23.0582C42.7646 23.1742 42.0014 23.2322 40.8927 23.2322V28.1017H38.7185V16.5945H38.7041ZM40.8783 21.1017H41.5695C42.1166 21.1017 42.491 21.0582 42.707 20.9858C42.923 20.9133 43.0814 20.7829 43.2109 20.5945C43.3261 20.4206 43.3981 20.1887 43.3981 19.9423C43.3981 19.493 43.2253 19.1742 42.8798 18.9713C42.635 18.8264 42.1742 18.7394 41.4975 18.7394H40.8783V21.1017Z" fill="#662483"/>
<path d="M46.4941 19.5941H48.3083V20.6666C48.5099 20.2463 48.7691 19.9274 49.1003 19.71C49.4314 19.4927 49.7914 19.3767 50.1802 19.3767C50.4538 19.3767 50.7417 19.4492 51.0441 19.5941L50.3818 21.4347C50.137 21.3042 49.921 21.2463 49.7626 21.2463C49.4314 21.2463 49.1579 21.4492 48.9275 21.855C48.6971 22.2608 48.5963 23.0579 48.5963 24.2463L48.6107 24.6666V28.1158H46.5085V19.5941H46.4941Z" fill="#662483"/>
<path d="M55.6658 19.3767C56.4577 19.3767 57.2208 19.5796 57.912 19.9854C58.6175 20.3912 59.1647 20.9274 59.5534 21.6231C59.9422 22.3187 60.1438 23.0579 60.1438 23.855C60.1438 24.6521 59.9422 25.4057 59.5534 26.1158C59.1503 26.8115 58.6175 27.3622 57.9264 27.7535C57.2352 28.1448 56.4865 28.3477 55.6658 28.3477C54.4563 28.3477 53.4195 27.9129 52.5556 27.0434C51.6917 26.1738 51.2741 25.1158 51.2741 23.884C51.2741 22.5506 51.7637 21.4492 52.7284 20.5651C53.5779 19.7535 54.557 19.3767 55.6658 19.3767ZM55.6946 21.3767C55.0322 21.3767 54.485 21.6086 54.0531 22.0724C53.6211 22.5361 53.3907 23.1303 53.3907 23.8405C53.3907 24.5796 53.6067 25.1883 54.0387 25.6376C54.4706 26.1013 55.0178 26.3332 55.6802 26.3332C56.3425 26.3332 56.9041 26.1013 57.336 25.6376C57.7824 25.1738 57.9984 24.5796 57.9984 23.8405C57.9984 23.1158 57.7824 22.5216 57.3504 22.0579C56.9329 21.6086 56.3713 21.3767 55.6946 21.3767Z" fill="#662483"/>
<path d="M63.5855 19.5941V20.5361C63.9742 20.1448 64.3774 19.855 64.8238 19.6666C65.2701 19.4782 65.7453 19.3767 66.2493 19.3767C67.358 19.3767 68.2939 19.797 69.0571 20.6376C69.8346 21.4782 70.209 22.5506 70.209 23.8695C70.209 25.1303 69.8058 26.2028 69.0139 27.0434C68.2219 27.8984 67.2716 28.3187 66.1773 28.3187C65.6877 28.3187 65.2413 28.2318 64.8238 28.0579C64.4062 27.884 63.9886 27.5941 63.5711 27.2028V31.2173H61.4832V19.5941H63.5855ZM65.8173 21.3477C65.155 21.3477 64.5934 21.5796 64.147 22.0434C63.7007 22.5071 63.4847 23.1013 63.4847 23.8405C63.4847 24.5941 63.7007 25.2028 64.147 25.6811C64.5934 26.1448 65.1406 26.3767 65.8173 26.3767C66.4653 26.3767 67.0124 26.1448 67.4588 25.6666C67.9052 25.1883 68.1211 24.5796 68.1211 23.855C68.1211 23.1303 67.9052 22.5216 67.4732 22.0579C67.0412 21.5796 66.4797 21.3477 65.8173 21.3477Z" fill="#662483"/>
<path d="M75.5651 19.3767C76.357 19.3767 77.1202 19.5796 77.8113 19.9854C78.5169 20.3912 79.064 20.9274 79.4528 21.6231C79.8416 22.3187 80.0432 23.0579 80.0432 23.855C80.0432 24.6521 79.8416 25.4057 79.4528 26.1158C79.0496 26.8115 78.5169 27.3622 77.8257 27.7535C77.1346 28.1448 76.3858 28.3477 75.5651 28.3477C74.3556 28.3477 73.3189 27.9129 72.455 27.0434C71.591 26.1738 71.1735 25.1158 71.1735 23.884C71.1735 22.5506 71.663 21.4492 72.6277 20.5651C73.4917 19.7535 74.4708 19.3767 75.5651 19.3767ZM75.6083 21.3767C74.946 21.3767 74.3988 21.6086 73.9668 22.0724C73.5349 22.5361 73.3045 23.1303 73.3045 23.8405C73.3045 24.5796 73.5205 25.1883 73.9524 25.6376C74.3844 26.1013 74.9316 26.3332 75.5939 26.3332C76.2563 26.3332 76.8178 26.1013 77.2498 25.6376C77.6961 25.1738 77.9121 24.5796 77.9121 23.8405C77.9121 23.1158 77.6961 22.5216 77.2642 22.0579C76.8322 21.6086 76.2851 21.3767 75.6083 21.3767Z" fill="#662483"/>
<path d="M86.5657 20.7828L85.2554 22.1017C84.7226 21.5654 84.233 21.3046 83.8011 21.3046C83.5563 21.3046 83.3691 21.3625 83.2395 21.464C83.1099 21.5654 83.0379 21.6959 83.0379 21.8408C83.0379 21.9567 83.0811 22.0582 83.1675 22.1596C83.2539 22.2611 83.4699 22.3915 83.8011 22.5509L84.5786 22.9422C85.3994 23.348 85.9609 23.7683 86.2633 24.1886C86.5657 24.6089 86.724 25.1017 86.724 25.6814C86.724 26.435 86.4505 27.0727 85.8889 27.5799C85.3418 28.0872 84.593 28.3335 83.6715 28.3335C82.4332 28.3335 81.4541 27.8553 80.7197 26.8843L82.03 25.4495C82.2748 25.7393 82.5772 25.9712 82.9084 26.1596C83.2395 26.3335 83.5419 26.435 83.8011 26.435C84.0747 26.435 84.305 26.3625 84.4778 26.2321C84.6506 26.1017 84.737 25.9422 84.737 25.7683C84.737 25.435 84.4346 25.1162 83.8155 24.8118L83.0955 24.4495C81.7276 23.7538 81.0365 22.8843 81.0365 21.8408C81.0365 21.1741 81.2957 20.5944 81.814 20.1162C82.3324 19.6379 82.9948 19.406 83.7867 19.406C84.3338 19.406 84.8522 19.5219 85.3418 19.7683C85.8169 19.9857 86.2345 20.3335 86.5657 20.7828Z" fill="#662483"/>
<path d="M94.2408 19.5941H96.3574V28.1013H94.2408V27.2028C93.8232 27.5941 93.4056 27.884 92.9881 28.0579C92.5705 28.2318 92.1241 28.3187 91.6346 28.3187C90.5403 28.3187 89.6043 27.8985 88.798 27.0434C88.0061 26.1883 87.6029 25.1303 87.6029 23.8695C87.6029 22.5506 87.9917 21.4782 88.7548 20.6376C89.5324 19.797 90.4683 19.3767 91.5626 19.3767C92.0665 19.3767 92.5417 19.4782 92.9881 19.6666C93.4344 19.855 93.852 20.1448 94.2264 20.5361V19.5941H94.2408ZM92.009 21.3477C91.3466 21.3477 90.8138 21.5796 90.3675 22.0434C89.9355 22.5071 89.7195 23.1158 89.7195 23.8405C89.7195 24.5796 89.9355 25.1883 90.3819 25.6521C90.8282 26.1303 91.361 26.3622 92.009 26.3622C92.6713 26.3622 93.2329 26.1303 93.6648 25.6666C94.0968 25.2028 94.3272 24.5941 94.3272 23.826C94.3272 23.0869 94.1112 22.4782 93.6648 22.0289C93.2329 21.5796 92.6857 21.3477 92.009 21.3477Z" fill="#662483"/>
<path d="M97.8832 16.3044H99.9998V28.1015H97.8832V16.3044Z" fill="#662483"/>
<path d="M26.8539 33.7105L25.3276 35.1743C24.2909 34.0728 23.1246 33.5221 21.8287 33.5221C20.7344 33.5221 19.8129 33.8989 19.0641 34.6525C18.3154 35.4062 17.941 36.3337 17.941 37.4351C17.941 38.2032 18.1138 38.8844 18.445 39.4786C18.7762 40.0728 19.2513 40.5366 19.8561 40.8844C20.4608 41.2177 21.1376 41.3916 21.8719 41.3916C22.5055 41.3916 23.0814 41.2757 23.5998 41.0293C24.1181 40.7974 24.6941 40.3627 25.3276 39.7395L26.7963 41.2902C25.9468 42.1163 25.1549 42.696 24.4061 43.0148C23.6574 43.3337 22.7934 43.4931 21.8287 43.4931C20.0577 43.4931 18.589 42.9279 17.4659 41.7974C16.3283 40.667 15.7668 39.2032 15.7668 37.4351C15.7668 36.2902 16.026 35.2612 16.5443 34.3772C17.0627 33.4786 17.797 32.7685 18.7618 32.2322C19.7265 31.696 20.7632 31.4207 21.8719 31.4207C22.8222 31.4207 23.7294 31.6236 24.5933 32.0293C25.4572 32.4351 26.2204 32.9714 26.8539 33.7105Z" fill="#009CC0"/>
<path d="M32.0953 34.4644C32.8872 34.4644 33.6503 34.6673 34.3415 35.0731C35.047 35.4788 35.5942 36.0151 35.983 36.7107C36.3717 37.4064 36.5733 38.1455 36.5733 38.9426C36.5733 39.7397 36.3717 40.4933 35.983 41.2035C35.5798 41.8991 35.047 42.4499 34.3559 42.8412C33.6647 43.2325 32.916 43.4354 32.0953 43.4354C30.8858 43.4354 29.849 43.0006 28.9851 42.131C28.1212 41.2615 27.7036 40.2035 27.7036 38.9716C27.7036 37.6383 28.1932 36.5368 29.1579 35.6528C30.0218 34.8557 30.9866 34.4644 32.0953 34.4644ZM32.1241 36.4788C31.4617 36.4788 30.9146 36.7107 30.4826 37.1745C30.0506 37.6383 29.8202 38.2325 29.8202 38.9426C29.8202 39.6817 30.0362 40.2904 30.4682 40.7397C30.9002 41.2035 31.4473 41.4354 32.1097 41.4354C32.772 41.4354 33.3336 41.2035 33.7655 40.7397C34.2119 40.2759 34.4279 39.6817 34.4279 38.9426C34.4279 38.218 34.2119 37.6238 33.7799 37.16C33.3624 36.7107 32.8008 36.4788 32.1241 36.4788Z" fill="#009CC0"/>
<path d="M44.1612 34.6959H46.2778V43.2031H44.1612V42.3046C43.7436 42.6959 43.3261 42.9857 42.9085 43.1596C42.4909 43.3336 42.0446 43.4205 41.555 43.4205C40.4607 43.4205 39.5248 43.0002 38.7184 42.1452C37.9121 41.2901 37.5233 40.2321 37.5233 38.9713C37.5233 37.6524 37.9121 36.58 38.6752 35.7394C39.4528 34.8988 40.3887 34.4785 41.483 34.4785C41.987 34.4785 42.4621 34.58 42.9085 34.7684C43.3548 34.9568 43.7724 35.2466 44.1468 35.6379V34.6959H44.1612ZM41.9294 36.4495C41.267 36.4495 40.7343 36.6814 40.2879 37.1452C39.8559 37.6089 39.6399 38.2176 39.6399 38.9423C39.6399 39.6814 39.8559 40.2901 40.3023 40.7539C40.7487 41.2321 41.2814 41.464 41.9294 41.464C42.5917 41.464 43.1533 41.2321 43.5852 40.7683C44.0172 40.3046 44.2476 39.6959 44.2476 38.9278C44.2476 38.1886 44.0316 37.58 43.5852 37.1307C43.1533 36.6669 42.6061 36.4495 41.9294 36.4495Z" fill="#009CC0"/>
<path d="M56.3138 36.4055L54.5428 37.3765C54.2116 37.0287 53.8804 36.7823 53.5637 36.6519C53.2325 36.5214 52.8581 36.449 52.4262 36.449C51.6342 36.449 50.9863 36.6809 50.4967 37.1591C50.0071 37.6374 49.7624 38.2461 49.7624 38.9852C49.7624 39.7098 49.9927 40.304 50.4679 40.7533C50.9431 41.2171 51.5622 41.4345 52.3254 41.4345C53.2757 41.4345 54.01 41.1156 54.5428 40.4635L56.213 41.6229C55.3059 42.8113 54.0244 43.4055 52.3686 43.4055C50.8855 43.4055 49.7192 42.9562 48.8696 42.0721C48.0201 41.1881 47.6025 40.1446 47.6025 38.9562C47.6025 38.1301 47.8041 37.3765 48.2217 36.6809C48.6249 35.9852 49.2008 35.449 49.9351 35.0432C50.6695 34.6374 51.4902 34.449 52.3974 34.449C53.2325 34.449 53.9956 34.6229 54.658 34.9562C55.3347 35.3185 55.8819 35.7968 56.3138 36.4055Z" fill="#009CC0"/>
<path d="M57.8256 31.4058H59.9278V35.5507C60.3454 35.1884 60.7629 34.9275 61.1805 34.7391C61.5981 34.5652 62.03 34.4637 62.462 34.4637C63.2971 34.4637 64.0027 34.7536 64.5786 35.3333C65.0682 35.8405 65.313 36.5797 65.313 37.5652V43.1883H63.2251V39.4492C63.2251 38.4637 63.1819 37.797 63.0811 37.4492C62.9948 37.1014 62.822 36.8405 62.606 36.6666C62.3756 36.4927 62.102 36.4057 61.7709 36.4057C61.3389 36.4057 60.9645 36.5507 60.6621 36.8405C60.3598 37.1304 60.1438 37.5217 60.0142 38.0144C59.9566 38.2753 59.9278 38.855 59.9278 39.7681V43.1883H57.8256V31.4058Z" fill="#009CC0"/>
<path d="M10.3528 20.2609H0L14.3844 0H24.7228L10.3528 20.2609Z" fill="#009CC0"/>
<path d="M68.956 64.0005H58.6032L74.4419 42.073H84.4923L68.956 64.0005Z" fill="#009CC0"/>
<path d="M24.0172 13.6957H34.37L24.7516 0H14.3988L24.0172 13.6957Z" fill="#662483"/>
<path d="M58.6035 63.9995H68.9563L57.5668 47.8545H47.2141L58.6035 63.9995Z" fill="#662483"/>
<path d="M69.7624 42.0723H89.4456L85.3275 33.71L69.7624 42.0723Z" fill="#009CC0"/>
</svg>
