<svg width="148" height="29" viewBox="0 0 148 29" fill="none" xmlns="http://www.w3.org/2000/svg">
<g opacity="0.2">
<path d="M84.9452 28.4414C83.4272 28.4414 82.102 28.1953 80.9695 27.7031C79.8611 27.1875 78.9455 26.5078 78.2227 25.6641C77.4998 24.8203 76.9577 23.8359 76.5963 22.7109C76.2348 21.5859 76.0541 20.3906 76.0541 19.125C76.0541 16.5938 76.4396 14.3086 77.2107 12.2695C78.0058 10.207 79.0299 8.39062 80.2828 6.82031C81.5357 5.22656 82.9212 3.86719 84.4392 2.74219C85.9813 1.59375 87.4992 0.679688 88.9931 0L90.0413 1.37109C87.9209 3.31641 86.2342 5.05078 84.9813 6.57422C83.7284 8.07422 83.1019 9.32812 83.1019 10.3359C83.1019 10.9453 83.3669 11.4375 83.897 11.8125C84.4271 12.1875 85.0777 12.5273 85.8487 12.832C86.5957 13.1133 87.3788 13.4297 88.198 13.7812C89.0172 14.1328 89.7642 14.6016 90.4388 15.1875C91.1376 15.75 91.7038 16.4648 92.1375 17.332C92.5953 18.1992 92.8242 19.3008 92.8242 20.6367C92.8242 21.4336 92.6556 22.2891 92.3182 23.2031C92.005 24.1172 91.511 24.9609 90.8364 25.7344C90.1858 26.5078 89.3666 27.1523 88.3787 27.668C87.3908 28.1836 86.2463 28.4414 84.9452 28.4414ZM65.0668 28.4414C63.5488 28.4414 62.2236 28.1953 61.0912 27.7031C59.9828 27.1875 59.0672 26.5078 58.3443 25.6641C57.6215 24.8203 57.0793 23.8359 56.7179 22.7109C56.3565 21.5859 56.1758 20.3906 56.1758 19.125C56.1758 16.5938 56.5613 14.3086 57.3323 12.2695C58.1275 10.207 59.1515 8.39062 60.4044 6.82031C61.6574 5.22656 63.0428 3.86719 64.5608 2.74219C66.1029 1.59375 67.6209 0.679688 69.1148 0L70.1629 1.37109C68.0426 3.31641 66.3559 5.05078 65.103 6.57422C63.85 8.07422 63.2236 9.32812 63.2236 10.3359C63.2236 10.9453 63.4886 11.4375 64.0187 11.8125C64.5488 12.1875 65.1993 12.5273 65.9704 12.832C66.7173 13.1133 67.5004 13.4297 68.3196 13.7812C69.1389 14.1328 69.8858 14.6016 70.5605 15.1875C71.2592 15.75 71.8255 16.4648 72.2592 17.332C72.717 18.1992 72.9459 19.3008 72.9459 20.6367C72.9459 21.4336 72.7772 22.2891 72.4399 23.2031C72.1266 24.1172 71.6327 24.9609 70.958 25.7344C70.3075 26.5078 69.4882 27.1523 68.5004 27.668C67.5125 28.1836 66.368 28.4414 65.0668 28.4414Z" fill="white"/>
<rect y="14.2773" width="32" height="1" fill="white"/>
<rect x="116" y="14.2773" width="32" height="1" fill="white"/>
</g>
</svg>
